<svg width="110" height="55" viewBox="0 0 110 55" fill="none" xmlns="http://www.w3.org/2000/svg">
<path d="M43.7021 38.48C43.7021 37.36 43.9288 36.38 44.3821 35.54C44.8354 34.6867 45.4554 34.0267 46.2421 33.56C47.0421 33.0933 47.9288 32.86 48.9021 32.86C49.8621 32.86 50.6954 33.0667 51.4021 33.48C52.1088 33.8933 52.6354 34.4133 52.9821 35.04V33.04H54.8221V44H52.9821V41.96C52.6221 42.6 52.0821 43.1333 51.3621 43.56C50.6554 43.9733 49.8288 44.18 48.8821 44.18C47.9088 44.18 47.0288 43.94 46.2421 43.46C45.4554 42.98 44.8354 42.3067 44.3821 41.44C43.9288 40.5733 43.7021 39.5867 43.7021 38.48ZM52.9821 38.5C52.9821 37.6733 52.8154 36.9533 52.4821 36.34C52.1488 35.7267 51.6954 35.26 51.1221 34.94C50.5621 34.6067 49.9421 34.44 49.2621 34.44C48.5821 34.44 47.9621 34.6 47.4021 34.92C46.8421 35.24 46.3954 35.7067 46.0621 36.32C45.7288 36.9333 45.5621 37.6533 45.5621 38.48C45.5621 39.32 45.7288 40.0533 46.0621 40.68C46.3954 41.2933 46.8421 41.7667 47.4021 42.1C47.9621 42.42 48.5821 42.58 49.2621 42.58C49.9421 42.58 50.5621 42.42 51.1221 42.1C51.6954 41.7667 52.1488 41.2933 52.4821 40.68C52.8154 40.0533 52.9821 39.3267 52.9821 38.5ZM59.7177 35.08C60.0911 34.4267 60.6377 33.8933 61.3577 33.48C62.0777 33.0667 62.8977 32.86 63.8177 32.86C64.8044 32.86 65.6911 33.0933 66.4777 33.56C67.2644 34.0267 67.8844 34.6867 68.3377 35.54C68.7911 36.38 69.0177 37.36 69.0177 38.48C69.0177 39.5867 68.7911 40.5733 68.3377 41.44C67.8844 42.3067 67.2577 42.98 66.4577 43.46C65.6711 43.94 64.7911 44.18 63.8177 44.18C62.8711 44.18 62.0377 43.9733 61.3177 43.56C60.6111 43.1467 60.0777 42.62 59.7177 41.98V44H57.8977V29.2H59.7177V35.08ZM67.1577 38.48C67.1577 37.6533 66.9911 36.9333 66.6577 36.32C66.3244 35.7067 65.8711 35.24 65.2977 34.92C64.7377 34.6 64.1177 34.44 63.4377 34.44C62.7711 34.44 62.1511 34.6067 61.5777 34.94C61.0177 35.26 60.5644 35.7333 60.2177 36.36C59.8844 36.9733 59.7177 37.6867 59.7177 38.5C59.7177 39.3267 59.8844 40.0533 60.2177 40.68C60.5644 41.2933 61.0177 41.7667 61.5777 42.1C62.1511 42.42 62.7711 42.58 63.4377 42.58C64.1177 42.58 64.7377 42.42 65.2977 42.1C65.8711 41.7667 66.3244 41.2933 66.6577 40.68C66.9911 40.0533 67.1577 39.32 67.1577 38.48ZM73.2334 34.82C73.5534 34.1933 74.0067 33.7067 74.5934 33.36C75.1934 33.0133 75.92 32.84 76.7734 32.84V34.72H76.2934C74.2534 34.72 73.2334 35.8267 73.2334 38.04V44H71.4134V33.04H73.2334V34.82ZM79.8143 31.26C79.4676 31.26 79.1743 31.14 78.9343 30.9C78.6943 30.66 78.5743 30.3667 78.5743 30.02C78.5743 29.6733 78.6943 29.38 78.9343 29.14C79.1743 28.9 79.4676 28.78 79.8143 28.78C80.1476 28.78 80.4276 28.9 80.6543 29.14C80.8943 29.38 81.0143 29.6733 81.0143 30.02C81.0143 30.3667 80.8943 30.66 80.6543 30.9C80.4276 31.14 80.1476 31.26 79.8143 31.26ZM80.6943 33.04V44H78.8743V33.04H80.6943ZM93.7962 38.1C93.7962 38.4467 93.7762 38.8133 93.7362 39.2H84.9762C85.0428 40.28 85.4095 41.1267 86.0762 41.74C86.7562 42.34 87.5762 42.64 88.5362 42.64C89.3228 42.64 89.9762 42.46 90.4962 42.1C91.0295 41.7267 91.4028 41.2333 91.6162 40.62H93.5762C93.2828 41.6733 92.6962 42.5333 91.8162 43.2C90.9362 43.8533 89.8428 44.18 88.5362 44.18C87.4962 44.18 86.5628 43.9467 85.7362 43.48C84.9228 43.0133 84.2828 42.3533 83.8162 41.5C83.3495 40.6333 83.1162 39.6333 83.1162 38.5C83.1162 37.3667 83.3428 36.3733 83.7962 35.52C84.2495 34.6667 84.8828 34.0133 85.6962 33.56C86.5228 33.0933 87.4695 32.86 88.5362 32.86C89.5762 32.86 90.4962 33.0867 91.2962 33.54C92.0962 33.9933 92.7095 34.62 93.1362 35.42C93.5762 36.2067 93.7962 37.1 93.7962 38.1ZM91.9162 37.72C91.9162 37.0267 91.7628 36.4333 91.4562 35.94C91.1495 35.4333 90.7295 35.0533 90.1962 34.8C89.6762 34.5333 89.0962 34.4 88.4562 34.4C87.5362 34.4 86.7495 34.6933 86.0962 35.28C85.4562 35.8667 85.0895 36.68 84.9962 37.72H91.9162ZM98.0185 29.2V44H96.1985V29.2H98.0185Z" fill="white"/>
<path d="M10.6724 25.1239L10.3894 25.518L10.7748 25.8127L29.2167 39.9153L0.88949 26.5848L26.1418 3.57712L10.6724 25.1239Z" fill="white" stroke="white"/>
<path d="M34.4765 29.8706L34.5745 29.3954L34.1026 29.2831L17.6993 25.3803L40.6329 25.8524L30.5582 48.8673L34.4765 29.8706Z" fill="white" stroke="white"/>
</svg>
